<svg width="560" height="420" viewBox="0 0 560 420" fill="none" xmlns="http://www.w3.org/2000/svg">
  <rect width="560" height="420" fill="#FDFBF7"/>
  <path d="M116 309C164 333 254 340 338 320C408 304 455 268 458 222C463 148 382 94 287 92C187 90 105 142 92 215C86 250 92 287 116 309Z" fill="#E7EED8"/>
  <path d="M136 142C183 116 243 105 303 111C378 119 438 158 455 209" stroke="#536A99" stroke-width="5" stroke-linecap="round"/>
  <path d="M91 235C88 282 120 314 170 329C223 344 292 341 352 322" stroke="#536A99" stroke-width="5" stroke-linecap="round"/>
  <path d="M169 154L366 130C383 128 397 139 399 156L418 301C420 318 408 332 391 334L194 358C177 360 163 348 161 331L142 186C140 169 152 156 169 154Z" fill="#FEFEFE" stroke="#2F3548" stroke-width="5" stroke-linejoin="round"/>
  <path d="M183 192L357 171" stroke="#D2D4E5" stroke-width="5" stroke-linecap="round"/>
  <path d="M190 234L364 213" stroke="#D2D4E5" stroke-width="5" stroke-linecap="round"/>
  <path d="M197 276L371 255" stroke="#D2D4E5" stroke-width="5" stroke-linecap="round"/>
  <path d="M205 318L314 305" stroke="#D2D4E5" stroke-width="5" stroke-linecap="round"/>
  <path d="M192 190L200 232L207 274L215 316" stroke="#CEAF9A" stroke-width="5" stroke-linecap="round"/>
  <path d="M371 164L390 310" stroke="#CEAF9A" stroke-width="5" stroke-linecap="round"/>
  <path d="M121 112L202 92C216 88 230 97 234 111L275 270C279 284 270 298 256 302L175 323C161 326 147 318 143 304L102 145C98 131 107 116 121 112Z" fill="#FEFEFE" stroke="#2F3548" stroke-width="5" stroke-linejoin="round"/>
  <path d="M132 143L205 125" stroke="#DCD9D6" stroke-width="5" stroke-linecap="round"/>
  <path d="M144 185L218 166" stroke="#DCD9D6" stroke-width="5" stroke-linecap="round"/>
  <path d="M155 227L228 208" stroke="#DCD9D6" stroke-width="5" stroke-linecap="round"/>
  <path d="M166 269L225 254" stroke="#DCD9D6" stroke-width="5" stroke-linecap="round"/>
  <path d="M312 112C333 81 370 67 404 82C434 96 448 128 437 160" stroke="#F0A536" stroke-width="9" stroke-linecap="round"/>
  <path d="M386 173L448 278" stroke="#2F3548" stroke-width="8" stroke-linecap="round"/>
  <path d="M372 153C373 128 394 109 419 110C444 111 463 132 462 157C461 182 440 201 415 200C390 199 371 178 372 153Z" fill="#FEFEFE" stroke="#2F3548" stroke-width="5"/>
  <path d="M407 135C416 127 431 130 438 140" stroke="#D2D4E5" stroke-width="5" stroke-linecap="round"/>
  <path d="M86 318C108 309 132 312 151 328" stroke="#CEAF9A" stroke-width="7" stroke-linecap="round"/>
  <path d="M391 347C421 354 452 347 475 326" stroke="#CEAF9A" stroke-width="7" stroke-linecap="round"/>
  <circle cx="109" cy="93" r="11" fill="#F0A536" stroke="#2F3548" stroke-width="4"/>
  <circle cx="449" cy="314" r="13" fill="#F0A536" stroke="#2F3548" stroke-width="4"/>
  <circle cx="473" cy="295" r="9" fill="#E7EED8" stroke="#2F3548" stroke-width="4"/>
</svg>
