<svg xmlns="http://www.w3.org/2000/svg" width="300" height="300" viewBox="0 0 300 300" fill="none">
  <path d="M60 72c0-12 8-20 20-20h118c15 0 23 8 24 22l8 100c1 15-8 25-23 25H79c-13 0-22-8-23-21L48 79c-1-4 2-7 12-7Z" fill="#fffdf8"/>
  <path d="M64 69c18-5 45-7 78-7 24 0 47 2 67 6 10 2 15 8 16 19 2 26 5 56 7 89 1 15-7 24-22 24-37 1-76 1-117 0-18 0-27-8-28-24-3-32-7-65-11-99-1-4 2-7 10-8Z" stroke="#565656" stroke-width="13" stroke-linecap="round" stroke-linejoin="round"/>
  <path d="M74 95c32 2 77 1 136-2" stroke="#565656" stroke-width="10" stroke-linecap="round"/>
  <path d="M112 74c1 11 2 18 2 28" stroke="#565656" stroke-width="10" stroke-linecap="round"/>
  <path d="M169 73c0 10 0 19 1 28" stroke="#565656" stroke-width="10" stroke-linecap="round"/>
  <path d="M92 132c23 18 48 25 76 19l19-5" stroke="#565656" stroke-width="12" stroke-linecap="round" stroke-linejoin="round"/>
  <path d="M104 132c-4-13 6-24 18-16 8 5 11 16 9 29" stroke="#565656" stroke-width="10" stroke-linecap="round" stroke-linejoin="round"/>
  <path d="M184 135c-1-14 12-24 22-16 9 7 8 21-1 32" stroke="#565656" stroke-width="10" stroke-linecap="round" stroke-linejoin="round"/>
  <path d="M86 230c32 5 76 6 132 2" stroke="#565656" stroke-width="12" stroke-linecap="round"/>
  <path d="M102 217c30 3 69 4 119 1" stroke="#565656" stroke-width="8" stroke-linecap="round" opacity=".35"/>
  <path d="M190 159c10-2 19-1 30 2 10 3 16 10 17 20l4 22c1 9-3 16-12 18-14 3-31 4-50 3-9 0-14-5-16-14l-9-40" stroke="#565656" stroke-width="10" stroke-linecap="round" stroke-linejoin="round"/>
  <path d="M153 170h17" stroke="#565656" stroke-width="10" stroke-linecap="round"/>
  <path d="M180 183c16 2 34 2 54-1" stroke="#565656" stroke-width="8" stroke-linecap="round"/>
  <path d="M183 204c13 2 30 2 49-1" stroke="#565656" stroke-width="8" stroke-linecap="round"/>
  <path d="M190 238c0 7-5 13-12 13s-12-6-12-13 5-12 12-12 12 5 12 12Z" fill="#fffdf8" stroke="#565656" stroke-width="8"/>
  <path d="M237 238c0 7-5 13-12 13s-12-6-12-13 5-12 12-12 12 5 12 12Z" fill="#fffdf8" stroke="#565656" stroke-width="8"/>
</svg>
