<svg xmlns="http://www.w3.org/2000/svg" viewBox="0 0 64 64" fill="none">
  <path d="M9.3 54c.3-14.2 4.8-23.8 13.2-28.3L21.1 11 32 20.8c2-.4 4-.4 6 0L48.2 11l-1.1 14.8c3.3 1.8 5.8 4.2 7.5 7.4" stroke="#202433" stroke-width="3.8" stroke-linecap="round" stroke-linejoin="round"/>
  <path d="M18.7 38.3 8.8 35.5M18.8 44.6l-10.2.9M28 37.3c.8.9 1.8 1.3 3 1.3M37.1 37.3c.8.9 1.8 1.3 3 1.3M31.7 43.5c1 1.1 2.2 1.1 3.2 0M32.1 43.7c-.3 2-1.6 3-3.5 2.7M34.8 43.7c.4 2 1.7 2.9 3.6 2.6" stroke="#202433" stroke-width="3.1" stroke-linecap="round" stroke-linejoin="round"/>
  <path d="M42.2 50.7c4.2-9.8 9.7-15.1 17.1-15.8-1 7.7-6.6 13.2-17.1 15.8Z" stroke="#202433" stroke-width="3.4" stroke-linecap="round" stroke-linejoin="round"/>
  <path d="M42.2 50.7c-3.5-8.9-1.8-16.2 5-22.2 3.5 8.3 1.9 15.7-5 22.2ZM42.2 50.7c-8.7-2.7-13.5-7.8-14.5-15.5 7.4.7 12.4 5.8 14.5 15.5ZM42.2 50.7c-6.6 3.1-12.2 3.4-16.5.8 4-4.1 9.5-4.4 16.5-.8ZM42.2 50.7c6.4 3.4 11.8 3.9 16.1 1.4-3.8-4.4-9.2-4.8-16.1-1.4Z" stroke="#202433" stroke-width="3.2" stroke-linecap="round" stroke-linejoin="round"/>
</svg>
