<svg xmlns="http://www.w3.org/2000/svg" viewBox="0 0 64 64" fill="none">
  <path d="M13.7 53.2c.2-13.4 3.5-23 10.7-28.3L23 10.9l9.1 8.8c2.5-.5 5.1-.5 7.6 0l9-8.8-1.2 14c7.1 5.3 10.5 14.9 10.7 28.3" stroke="#202433" stroke-width="4" stroke-linecap="round" stroke-linejoin="round"/>
  <path d="M25.1 34.9c1.1 1.2 2.5 1.2 3.6 0M35.3 34.9c1.1 1.2 2.5 1.2 3.6 0" stroke="#202433" stroke-width="3.4" stroke-linecap="round"/>
  <path d="M31.1 41.4c1.1 1 2.5 1 3.7 0M31.4 41.6c-.4 2.6-2 3.8-4.4 3.4M34.5 41.6c.4 2.6 2 3.8 4.4 3.4" stroke="#202433" stroke-width="3.4" stroke-linecap="round" stroke-linejoin="round"/>
  <path d="M21.2 38.9 8.2 35.6M21.1 45.2 7.8 46.5M42.8 38.9l13-3.3M42.9 45.2l13.3 1.3" stroke="#202433" stroke-width="3.4" stroke-linecap="round"/>
</svg>
