<svg xmlns="http://www.w3.org/2000/svg" viewBox="0 0 64 64" fill="none">
  <path d="M17.3 35.7 21 25.9c1-2.8 3.3-4.3 6.5-4.3h9.2c3.2 0 5.4 1.5 6.5 4.3l3.6 9.8" stroke="#202433" stroke-width="3.5" stroke-linecap="round" stroke-linejoin="round"/>
  <path d="M13.2 36.6c2.4-2.4 5.9-3.6 10.4-3.6h16.8c4.4 0 7.9 1.2 10.4 3.6 1.5 1.5 2.3 3.3 2.3 5.4v5.4c0 2.5-1.9 4.4-4.4 4.4H15.3c-2.5 0-4.4-1.9-4.4-4.4V42c0-2.1.8-3.9 2.3-5.4Z" stroke="#202433" stroke-width="3.5" stroke-linecap="round" stroke-linejoin="round"/>
  <path d="M25.4 21.8h13.2l1.1-6H24.2l1.2 6ZM18.5 43.4h7.1M38.2 43.4h7.2" stroke="#202433" stroke-width="3" stroke-linecap="round" stroke-linejoin="round"/>
  <path d="M18.6 53.8v3.4M45.4 53.8v3.4M6.8 35.5h6.2M51 35.5h6.2" stroke="#202433" stroke-width="3.2" stroke-linecap="round"/>
</svg>
